<svg id="Layer_1" data-name="Layer 1" xmlns="http://www.w3.org/2000/svg" viewBox="0 0 512 512"><defs><style>.cls-1{opacity:0.4;isolation:isolate;}.cls-2{fill:#fefefe;}</style></defs><path class="cls-1" d="M251.31,372.91a16,16,0,0,1,0,22.63h0l-15.77,15.77a16,16,0,0,1-22.62,0L176,374.4l-30.87,30.86,36.11,36.11a16,16,0,0,1,0,22.63h0l-43.16,43.17a16,16,0,0,1-22.62,0L79.34,471.06,43.08,507.31a16,16,0,0,1-22.62,0L4.69,491.54a16,16,0,0,1,0-22.63h0L259.81,213.79a64.2,64.2,0,0,0,38.4,38.4L214.4,336Z"/><path class="cls-2" d="M448,0H320a64,64,0,0,0-64,64V192a64,64,0,0,0,64,64H448a64,64,0,0,0,64-64V64A64,64,0,0,0,448,0ZM374.63,182.63a32,32,0,1,1,0-45.25h0A32,32,0,0,1,374.63,182.63Zm64-64a32,32,0,1,1,0-45.25h0A32,32,0,0,1,438.63,118.63Z"/></svg>